<?xml version="1.0" encoding="utf-8"?>
<!-- Generator: Adobe Illustrator 25.4.1, SVG Export Plug-In . SVG Version: 6.00 Build 0)  -->
<svg version="1.1" id="Warstwa_1" xmlns="http://www.w3.org/2000/svg" xmlns:xlink="http://www.w3.org/1999/xlink" x="0px" y="0px"
	 viewBox="0 0 91.2 91.6" style="enable-background:new 0 0 91.2 91.6;" xml:space="preserve">
<style type="text/css">
	.st0{fill:#358021;}
</style>
<path transform="translate(-1524.965 -231.4)" class="st0" d="M1616.1,323H1525v-91.6h91.2V323z M1530,318h81.2v-81.6H1530V318z
	 M1601.2,266.1h-39.6v5h39.6V266.1z M1601.2,248.7h-39.6v5h39.6V248.7z M1601.2,283.4h-39.6v5h39.6V283.4z M1601.2,300.7h-39.6v5
	h39.6V300.7z M1550.5,266.1h-10.7v5h10.7V266.1z M1550.5,248.7h-10.7v5h10.7V248.7z M1550.5,283.4h-10.7v5h10.7V283.4z
	 M1550.5,300.7h-10.7v5h10.7V300.7z"/>
</svg>
