<svg xmlns="http://www.w3.org/2000/svg" width="254" height="254" viewBox="0 0 254 254">
    <g fill="none" fill-rule="evenodd">
        <g>
            <circle cx="127" cy="127" r="120" fill="#FFF" fill-rule="nonzero"></circle>
            <g fill-rule="nonzero">
                <path fill="#E90A0A" d="M-44.415 58.695H87.875V101.015H-44.415z" transform="translate(53 41) rotate(-90 21.73 79.855)"></path>
                <path fill="#FF8600" d="M-11.675 55.125H127.235V85.365H-11.675z" transform="translate(53 41) rotate(-90 57.78 70.245)"></path>
                <path fill="#AE0000" d="M13.665 63.855H192.065V123.725H13.665z" transform="translate(53 41) rotate(-90 102.865 93.79)"></path>
                <path fill="#008520" d="M60.34 83.69H227.87V91.34H60.34z" transform="translate(53 41) rotate(-90 144.105 87.515)"></path>
                <path fill="#0065B1" d="M69.91 85.37H202.77V93.29H69.91z" transform="translate(53 41) rotate(-90 136.34 89.33)"></path>
            </g>
            <g fill="#FFF" fill-rule="nonzero">
                <path d="M100.32 74.92c-.683-.69-.683-1.8 0-2.49l45.19-45.19c2.293-2.296 2.293-6.014 0-8.31L128.39 1.81c-2.296-2.293-6.014-2.293-8.31 0L74.89 47c-.698.662-1.792.662-2.49 0L27.21 1.81c-2.296-2.293-6.014-2.293-8.31 0L1.78 18.93c-2.293 2.296-2.293 6.014 0 8.31L47 72.43c.329.329.512.775.51 1.24.003.468-.18.918-.51 1.25L1.78 120.11c-2.293 2.296-2.293 6.014 0 8.31l17.12 17.12c2.296 2.293 6.014 2.293 8.31 0l45.19-45.19c.706-.642 1.784-.642 2.49 0l45.19 45.19c2.296 2.293 6.014 2.293 8.31 0l17.12-17.12c2.293-2.296 2.293-6.014 0-8.31l-45.19-45.19z" transform="translate(53 54)"></path>
                <path d="M100.68 174.94l.33-.39c1.5-1.87 2.64-4.67 1.32-6.9-1.94-3.29-8-2.12-9.62-1.31-1.853.702-3.768 1.228-5.72 1.57l-.21.05-.08-.21c0-.1-.09-.25-.18-.46-.587-1.382-1.032-2.819-1.33-4.29-.223-1.884.006-3.793.67-5.57v-.17c.08-.27.16-.55.24-.85l.23-.89.27.82c.08.31.2.71.35 1.18.059.16.125.317.2.47v.06l.22.4c.644 1.355 1.621 2.525 2.84 3.4.222.134.492.167.74.09 1.37-.5 2.85-3.29 2.83-5.33v-2c-.13-2.505-.13-5.015 0-7.52.2-1.07 1.69-2 3.58-3.07.39-.23.77-.45 1.17-.7 1.67-1 2-1.57 2-1.81v-.22l.11-.09c.56-.48.72-.77.73-.87v-.11l.08-.13c.098-.079.16-.195.17-.32-.002-.06-.031-.115-.08-.15-.1-.08-.33 0-.5.08h-.08c-.322-.01-.639.077-.91.25-.28.21-3.1 1.65-4.29 2.18l-1.37.61 1.1-1c.5-.47.78-.89.75-1.15-.03-.26-.09-.39-.17-.42-.08-.03-.48.19-.77.45-.29.26-.52.42-.85.66-.815.495-1.522 1.148-2.08 1.92-.44.87-.73 1.66-1.13 5.23l-.21 1.66-.32-1.32c-.52-2.12-1.94-7.16-4-8.29-1.055-.63-2.291-.886-3.51-.73l-.47.07.21-.42c.63-1.29 1.48-4.1.2-8.42-.376-1.724-1.502-3.19-3.07-4-2.5-1.12-5.44.23-5.47.24h-.11c-.17 0-4.32.09-5.17 7.49-.253 1.556-.084 3.152.49 4.62l.15.33h-.37c-.87.069-1.713.328-2.47.76-2.08 1.13-3.5 6.17-4 8.29l-.32 1.32-.21-1.66c-.4-3.57-.69-4.36-1.13-5.23-.535-.756-1.215-1.399-2-1.89-.37-.27-.68-.5-.89-.69-.21-.19-.61-.51-.77-.45-.16.06-.14.17-.17.42-.03.25.25.68.75 1.14l1.09 1-1.37-.61c-1.18-.52-4-2-4.27-2.16-.272-.18-.594-.27-.92-.26h-.09c-.14-.07-.38-.17-.49-.08-.048.037-.08.09-.09.15.02.125.084.238.18.32l.07.08v.11c0 .15.16.44.73.92l.11.09V141.45c0 .24.36.8 2 1.81.39.25.78.47 1.15.69 1.91 1.13 3.4 2 3.6 3.08.129 2.492.129 4.988 0 7.48v2c0 2 1.46 4.83 2.83 5.33.248.077.518.044.74-.09 1.32-.64 3-3.39 3.26-4.33.16-.47.28-.87.36-1.18l.24-.88.26.95c.08.3.16.58.24.85v.17c.666 1.776.892 3.687.66 5.57-.288 1.47-.73 2.904-1.32 4.28l-.2.51-.07.2h-.21c-2.008-.357-3.98-.896-5.89-1.61-1.453-.58-3.005-.872-4.57-.86-2 0-4.08.52-5 2.17-1.32 2.23-.18 5 1.32 6.9l.34.4c.367.43.795.804 1.27 1.11 1.623.936 3.413 1.548 5.27 1.8l.71.11-.62.36-.11.06c-.616.54-1.032 1.274-1.18 2.08-.216.801-.05 1.657.45 2.32.78.89 2.3.93 3.39.89 1.28-.05 3.26-.21 4.33-.31 1.44 0 4 .13 5.26 0 1.63-.14 6.08-.94 7.41-1.18h.09l3.89.77h.08l.6-.42-.17.53c.72.177 1.459.26 2.2.25h.68c1 .09 3.38.31 4.88.36.612.029 1.225-.005 1.83-.1 1.513.07 3.029.006 4.53-.19.88-.18 1.13-.52 1.14-.69.009-.07-.033-.137-.1-.16-.389-.032-.78-.001-1.16.09-.36.069-.724.109-1.09.12l-1.25-.05H95l.16-.34c.244-.596.3-1.252.16-1.88-.14-.81-.557-1.545-1.18-2.08l-.11-.06-.64-.36.72-.11c1.86-.25 3.654-.862 5.28-1.8.479-.293.913-.653 1.29-1.07z" transform="translate(53 54)"></path>
            </g>
            <path stroke="#26221E" stroke-width=".4" d="M153.32 128.92l45.19 45.19c2.293 2.296 2.293 6.014 0 8.31l-17.12 17.12c-2.296 2.293-6.014 2.293-8.31 0l-45.19-45.19c-.33-.33-.778-.516-1.245-.516-.467 0-.915.186-1.245.516l-45.19 45.19c-2.296 2.293-6.014 2.293-8.31 0l-17.12-17.12c-2.293-2.296-2.293-6.014 0-8.31L100 128.92c.33-.33.516-.778.516-1.245 0-.467-.186-.915-.516-1.245L54.78 81.24c-2.293-2.296-2.293-6.014 0-8.31L71.9 55.81c1.101-1.103 2.596-1.724 4.155-1.724 1.559 0 3.054.62 4.155 1.724L125.4 101c.33.33.778.516 1.245.516.467 0 .915-.186 1.245-.516l45.19-45.18c1.101-1.103 2.596-1.724 4.155-1.724 1.559 0 3.054.62 4.155 1.724l17.12 17.12c2.293 2.296 2.293 6.014 0 8.31l-45.19 45.19c-.681.686-.681 1.794 0 2.48h0zm-19.89 63.45c-.614 1.594-2.104 2.682-3.81 2.78-1.616-.085-3.044-1.077-3.69-2.56m-1.21 1.46c-1.506-.619-3.218-.466-4.59.41-2.67 1.46-4.27 9.4-4.27 9.4m4.45-3.17s-.52 6.23.42 9.73c.7 2.63 1.32 4.28.93 6.58-.378 1.685-.9 3.334-1.56 4.93 2.116 1.711 4.67 2.795 7.37 3.13 0 0 1.37.09 2.55.09 1.18 0 2.42-.09 2.42-.09 2.7-.335 5.254-1.419 7.37-3.13-.66-1.596-1.186-3.246-1.57-4.93-.38-2.3.24-3.95.94-6.58.94-3.5.42-9.73.42-9.73m-33.71-7c.353-.016.703.078 1 .27.21.16 4.54 2.23 4.87 2.41.33.18.57.32.75.4m5.67 13.44c-.227-.694-.522-1.364-.88-2-.6-1.06-1.18-2.29-1.58-5.77-.4-3.48-.67-4.31-1.13-5.24-.46-.93-2.25-2-3-2.6-.75-.6-1-.64-1 0s1.42 1.92 1.42 1.92m1 13.92s.18 2.22 1.67 1.57c1.49-.65 2.37-4.12 2.37-4.12M109.52 197s-1.62-.77-1.93-1c-.315-.28-.649-.537-1-.77-.117-.05-.252-.007-.32.1 0 0-.46.53 2 2s4.5 2.48 4.73 3.73c.23 1.25 0 7.35 0 9.48 0 2.13 1.53 4.89 2.86 5.38 1.33.49 3.65-3.18 4.07-4.45.225-.656.415-1.324.57-2m-11.26-13.29c-.43-.15-.839-.352-1.22-.6-.48-.34-1.16-.75-1.16-.75-.268-.202-.516-.43-.74-.68-.5-.53-.73-.15-.72.16.01.31.85 1 .85 1m3.27.53l-.86-.47c-.59-.297-1.161-.631-1.71-1-.46-.36-1.4-1.07-1.69-.84-.29.23.14.6.14.6m38.62 9.65s-1.6-7.94-4.28-9.4c-1.372-.876-3.084-1.029-4.59-.41m12.26 2.74c.238-.16.485-.307.74-.44.32-.17 4.68-2.22 4.89-2.38.297-.192.647-.286 1-.27m-6.58 3.09s2-1.53 1.9-2.18c-.1-.65-.33-.62-1 0-.67.62-2.48 1.67-2.95 2.6-.47.93-.74 1.76-1.13 5.24-.39 3.48-1 4.71-1.58 5.77-.358.636-.653 1.306-.88 2m1.06-2.32s.89 3.48 2.37 4.12c1.48.64 1.67-1.57 1.67-1.57m-7.5-.93c.155.676.345 1.344.57 2 .42 1.27 2.73 4.93 4.07 4.45 1.34-.48 2.88-3.25 2.86-5.38-.02-2.13-.23-8.23 0-9.48s2.25-2.23 4.73-3.73c2.48-1.5 2-2 2-2-.068-.107-.203-.15-.32-.1-.351.233-.685.49-1 .77-.31.24-1.93 1-1.93 1m3.24-1.68s.83-.69.85-1c.02-.31-.22-.69-.73-.16-.22.25-.465.478-.73.68 0 0-.68.41-1.16.75-.381.248-.79.45-1.22.6m3.84-2s.44-.36.14-.6-1.23.48-1.69.84c-.552.369-1.126.703-1.72 1l-.85.47M107 227.35s2.6 3.62 10.74 5.81l.52.14c9.44 2.1 17.93 3.73 17.93 3.73s.54-.18 1.12-1.64c.346-.685.462-1.464.33-2.22 0 0-19.64-10.17-22.44-11.17-1.309-.48-2.644-.884-4-1.21m8.85 1.14c-2.058-.375-4.082-.92-6.05-1.63-1.54-.77-7.73-2-9.68 1.32-1.95 3.32 1.36 7.54 3 8.49 2.185 1.222 4.628 1.908 7.13 2m22 4.95c.796.228 1.622.336 2.45.32h.67c.9.08 3.37.31 4.89.36 1.87.07 4.4-.16 3.89-3.27-.146-.82-.57-1.565-1.2-2.11-1-.67-2.73 0-4.72.61l-1 .31c-.644.212-1.328.274-2 .18h0c-.586-.049-1.174-.049-1.76 0m10.2 3.35c.104-.76.104-1.53 0-2.29-.186-.984-.75-1.856-1.57-2.43m-.59 0c-.782.711-1.119 1.79-.88 2.82.157 1.05.677 2.013 1.47 2.72m-8.26-.3c.56-.382.978-.937 1.19-1.58.156-.762.156-1.548 0-2.31m-13-37.71c.619 1.227 1.92 1.955 3.29 1.84 1.33.142 2.615-.528 3.26-1.7m15.63 24.93c-1.339.327-2.658.731-3.95 1.21-1.6.56-8.79 4.17-14.61 7.13m-7.87 5c.064.444.174.88.33 1.3.58 1.46 1.12 1.64 1.12 1.64s2.53-.48 6.37-1.27m15-3.52c5.86-2.16 7.84-4.89 7.84-4.89m-7.41 4.73c2.502-.092 4.945-.778 7.13-2 1.59-1 4.91-5.19 3-8.49-1.91-3.3-8.15-2.09-9.69-1.32-1.971.71-3.998 1.256-6.06 1.63m-24.81 10.29c-.743-.269-1.563-.222-2.27.13-.63.545-1.054 1.29-1.2 2.11-.51 3.11 2 3.34 3.89 3.27 1.52 0 4-.28 4.89-.36h.67c.831.016 1.66-.092 2.46-.32m-9.9-4.95c-.82.574-1.384 1.446-1.57 2.43-.104.76-.104 1.53 0 2.29m1.57.82c.793-.707 1.313-1.67 1.47-2.72.239-1.03-.098-2.109-.88-2.82m6.43 1.68c-.135.662-.118 1.346.05 2 .212.643.63 1.198 1.19 1.58m32.18-8.41h12.29m-71.71 0H106"></path>
            <g fill="#26221E" fill-rule="nonzero">
                <path d="M17.59 16.25c.798-.17 1.555-.492 2.23-.95 1.3-.81 3.34-4.49 1.6-10.36-2.11-7.09-8.89-3.91-8.89-3.91S8 1.03 7.11 8.74c-.89 7.71 4.58 7.28 4.58 7.28s0-.79-.08-1.83c-.085-.855-.329-1.686-.72-2.45-.318-1.113-.49-2.263-.51-3.42 0 0-.17-.95 1.61-2.15.986-.497 1.422-1.67 1-2.69.866 1.256 2.25 2.056 3.77 2.18.74.048 1.477-.122 2.12-.49 0 0 .05 2.14 0 3.15.046 1.152-.127 2.302-.51 3.39-.388.795-.636 1.65-.73 2.53-.04.84-.05 2.01-.05 2.01zM5 42c.908.877 1.77 1.802 2.58 2.77.55.78.85 1.25.85 1.25l6.79 3.44 3.56-2.27c.178-.538.435-1.046.76-1.51.71-1.19 1.2-1.38 1.2-1.38-2.224.772-4.582 1.085-6.93.92-2.255-.206-4.46-.78-6.53-1.7-.827-.399-1.594-.91-2.28-1.52zM13.4 55.5l-7.8-1.65-5.54-1.47s3.51 2.39 4.24 3c.73.61 3.6.3 4.44.49.64.167 1.254.416 1.83.74-1.085.325-2.201.536-3.33.63-1.53.07-4.15.3-4.15.3s4.82.26 6.77.09c1.95-.17 7.83-1.26 7.83-1.26l-4.29-.87zM29.08 57.76c2.273.121 4.552.08 6.82-.12 1.58-.34 1.5-1.19 1.08-1.34-.78.007-1.56.073-2.33.2l-1.6-.06c-.238.495-.651.883-1.16 1.09-.928.159-1.868.236-2.81.23zM24.72 25.76c-.11 2-.29 2.68-.26 3.32.17 1.013.4 2.015.69 3 .266-.95.397-1.933.39-2.92 0-1.5-.88-7.46-.88-7.46.099 1.351.119 2.707.06 4.06z" transform="translate(115 180)"></path>
            </g>
        </g>
    </g>
</svg>