<?xml version="1.0" encoding="utf-8"?>
<!-- Generator: Adobe Illustrator 25.4.1, SVG Export Plug-In . SVG Version: 6.00 Build 0)  -->
<svg version="1.1" id="Warstwa_1" xmlns="http://www.w3.org/2000/svg" xmlns:xlink="http://www.w3.org/1999/xlink" x="0px" y="0px"
	 viewBox="0 0 81.5 98.2" style="enable-background:new 0 0 81.5 98.2;" xml:space="preserve">
<style type="text/css">
	.st0{fill:#358021;}
</style>
<path class="st0" d="M13.7,21.5h33.8c1.3,0,2.3-1,2.3-2.3c0-1.3-1-2.3-2.3-2.3H13.7c-1.3,0-2.3,1-2.3,2.3
	C11.3,20.5,12.4,21.5,13.7,21.5z M13.6,38.5h33.9c1.3,0,2.3-1,2.3-2.3c0-1.3-1-2.3-2.3-2.3l0,0H13.6c-1.3,0-2.3,1-2.3,2.3
	C11.3,37.4,12.3,38.5,13.6,38.5z M36.1,50.8H13.6c-1.3,0-2.3,1-2.3,2.3c0,1.3,1,2.3,2.3,2.3h22.5c1.3,0,2.3-1,2.3-2.3
	C38.4,51.8,37.4,50.7,36.1,50.8L36.1,50.8z M79.1,74C79.1,74,79.1,74,79.1,74h-7.7v-7.6c0,0,0-0.1,0-0.1V64h-4.8V8c0-4.4-3.6-8-8-8
	H8C3.6,0,0,3.6,0,8v67.7c0,4.4,3.6,8,8,8h39.3v4.6h2.3c0,0,0,0,0,0h7.6v10h14.2v-2.3c0,0,0-0.1,0-0.1l0,0v-7.6h7.6c0,0,0,0,0,0h2.3
	V74H79.1z M8,78.9c-1.8,0-3.3-1.5-3.3-3.3V8c0-1.8,1.5-3.3,3.3-3.3h50.7C60.5,4.7,62,6.1,62,8v56h-4.8v10h-7.6c0,0,0,0,0,0h-2.3v4.8
	h0v0.2L8,78.9z M76.7,83.5h-7.6c0,0,0,0,0,0h-2.3v4.8h0v5.2H62v-5.2l0,0v-4.8h-2.3c0,0,0,0,0,0H52v-4.7h7.6c0,0,0,0,0,0H62V74l0,0
	v-5.2h4.7V74h0v4.8h2.3c0,0,0,0,0,0h7.6L76.7,83.5z"/>
</svg>
