<?xml version="1.0" encoding="utf-8"?>
<!-- Generator: Adobe Illustrator 25.4.1, SVG Export Plug-In . SVG Version: 6.00 Build 0)  -->
<svg version="1.1" id="Warstwa_1" xmlns="http://www.w3.org/2000/svg" xmlns:xlink="http://www.w3.org/1999/xlink" x="0px" y="0px"
	 viewBox="0 0 89.2 95" style="enable-background:new 0 0 89.2 95;" xml:space="preserve">
<style type="text/css">
	.st0{fill:#358021;}
</style>
<path class="st0" d="M13.7,21.5h33.8c1.3,0,2.3-1,2.3-2.3c0-1.3-1-2.3-2.3-2.3H13.7c-1.3,0-2.3,1-2.3,2.3
	C11.3,20.4,12.4,21.5,13.7,21.5z M47.5,33.8H13.6c-1.3,0-2.3,1-2.3,2.3c0,1.3,1,2.3,2.3,2.3h33.9c1.3,0,2.3-1,2.3-2.3
	C49.8,34.9,48.8,33.8,47.5,33.8L47.5,33.8z M36.1,50.7H13.6c-1.3,0-2.3,1-2.3,2.3s1,2.3,2.3,2.3c0,0,0,0,0,0h22.5
	c1.3,0,2.3-1,2.3-2.3C38.4,51.8,37.4,50.8,36.1,50.7z M85.3,44.5l-11.1-3.8c-2.4-0.8-5-0.9-7.5-0.3V8c0-4.4-3.6-8-8-8H8
	C3.6,0,0,3.6,0,8v67.7c0,4.4,3.6,8,8,8h46.3c0.2,0,0.3,0,0.5-0.1c1.4,2.2,3.2,4.2,5.3,5.9c2.7,2.3,5.8,4.1,9.2,5.4l0.7,0.2l0.7-0.2
	c3.4-1.2,6.5-3.1,9.2-5.4c5.9-4.7,9.4-11.9,9.3-19.4V50C89.2,47.5,87.7,45.3,85.3,44.5z M8,78.9c-1.8,0-3.3-1.5-3.3-3.3V8
	c0-1.8,1.5-3.3,3.3-3.3h50.7C60.5,4.7,62,6.1,62,8v33.8c0,0,0,0.1,0,0.1l-7.2,2.5c-2.4,0.8-4.1,3.1-4.1,5.7V70c0,3.1,0.5,6.1,1.6,9
	H8z M84.6,70c0.1,6.1-2.7,11.9-7.5,15.7c-2.1,1.8-4.5,3.2-7.1,4.3c-2.6-1.1-4.9-2.5-7-4.3c-4.8-3.8-7.5-9.6-7.5-15.7V50.2
	c0-0.6,0.4-1.1,0.9-1.3l10.8-3.8c1.8-0.6,3.7-0.6,5.5,0l11.1,3.8c0.4,0.2,0.7,0.6,0.7,1L84.6,70z M76.7,56.6c-1.1-0.6-2.5-0.1-3.1,1
	c0,0,0,0,0,0l-4.2,8.4L66,62.7c-0.9-0.9-2.4-0.9-3.3,0s-0.9,2.4,0,3.3l5.6,5.6c0.4,0.4,1,0.7,1.6,0.7l0,0c0.9,0,1.7-0.5,2.1-1.3
	l5.6-11.3C78.3,58.6,77.8,57.2,76.7,56.6C76.7,56.6,76.7,56.6,76.7,56.6z"/>
</svg>
