<svg width="24" height="24" viewBox="0 0 24 24" fill="none" xmlns="http://www.w3.org/2000/svg">
<mask id="mask0_0_18602" style="mask-type:alpha" maskUnits="userSpaceOnUse" x="0" y="1" width="24" height="23">
<path d="M15.75 13.5055V12.3107L17.75 10.3107V7C17.75 3.95861 15.234 1.25 11.9692 1.25C8.69615 1.25 6.25005 3.82828 6.25005 6.85592V10.3107L8.25005 12.3107V13.5055L1.32767 16.4722L0.260254 22.8767L1.73984 23.1233H22.2603L23.7398 22.8767L22.6724 16.4722L15.75 13.5055Z" fill="white"/>
</mask>
<g mask="url(#mask0_0_18602)">
<path d="M0 0H6.27199V24H0V0Z" fill="#E90A0A"/>
<path d="M6.27197 0H6.97598V24H6.27197V0Z" fill="#26221E"/>
<path d="M6.97607 0H13.4401V24H6.97607V0Z" fill="#FF8600"/>
<path d="M13.4399 0H17.6639V24H13.4399V0Z" fill="#AE0000"/>
<path d="M17.6641 0H18.1121V24H17.6641V0Z" fill="#0065B1"/>
<path d="M18.1118 0H23.9998V24H18.1118V0Z" fill="#008520"/>
</g>
</svg>
