<?xml version="1.0" encoding="utf-8"?>
<!-- Generator: Adobe Illustrator 25.4.1, SVG Export Plug-In . SVG Version: 6.00 Build 0)  -->
<svg version="1.1" id="Warstwa_1" xmlns="http://www.w3.org/2000/svg" xmlns:xlink="http://www.w3.org/1999/xlink" x="0px" y="0px"
	 viewBox="0 0 81 108" style="enable-background:new 0 0 81 108;" xml:space="preserve">
<style type="text/css">
	.st0{fill:#358021;}
</style>
<path transform="translate(-325.565 -494.057)" class="st0" d="M348,512v1.9h35.6v-4.1H348L348,512L348,512z M363.8,533.3h-1.1v3.6
	H393v-3.6H363.8z M363.8,553.6h-1.1v3.6H393v-3.6H363.8z M363.8,573.8h-1.1v3.6H393v-3.6H363.8z M348.2,567.6c-4.4,0-8,3.6-8,8
	c0,4.4,3.6,8,8,8c4.4,0,8-3.6,8-8l0,0C356.2,571.2,352.6,567.6,348.2,567.6z M348.2,580.6c-2.7,0-4.9-2.2-4.9-4.9s2.2-4.9,4.9-4.9
	c2.7,0,4.9,2.2,4.9,4.9S350.9,580.6,348.2,580.6L348.2,580.6z M348.2,542.6c4.4,0,8-3.6,8-8c0-4.4-3.6-8-8-8c-4.4,0-8,3.6-8,8l0,0
	C340.1,539,343.7,542.6,348.2,542.6z M348.2,529.6c2.7,0,4.9,2.2,4.9,4.9s-2.2,4.9-4.9,4.9c-2.7,0-4.9-2.2-4.9-4.9
	S345.4,529.6,348.2,529.6L348.2,529.6z M345.9,556l-4.5-4.3l-2.9,2.7l3.2,3.1l4.3,4.2l0.1-0.1l9.2-9.2l1.7-2l-2.8-2.8L345.9,556z
	 M406.5,509.8v-4.5H393l0,0h-4.5V503c0-1.2-1-2.2-2.2-2.2c0,0,0,0,0,0h-9.9c-0.5-0.1-0.8-0.4-1-0.8c-2.3-5.1-8.3-7.3-13.4-5
	c-2.3,1.1-4.2,3-5.2,5.3c-0.2,0.3-0.5,0.5-0.9,0.5h-9.8c-1.2,0-2.2,0.9-2.3,2.2v2.3h-18.4v96.7h3.2c0.3,0.1,0.7,0.1,1.1,0.1h72.4
	c0.4,0,0.7-0.1,1.1-0.1h3.2v-4.5h0L406.5,509.8L406.5,509.8z M402,597.4h-71.9v-87.7h18v-4.5h7.8c2.1,0,4-1.3,4.9-3.2
	c1.2-2.8,4.5-4.1,7.4-2.9c1.3,0.6,2.3,1.6,2.9,2.9c0.9,2,2.7,3.3,4.9,3.4h7.8v4.3H402L402,597.4z"/>
</svg>
