<?xml version="1.0" encoding="utf-8"?>
<!-- Generator: Adobe Illustrator 25.4.1, SVG Export Plug-In . SVG Version: 6.00 Build 0)  -->
<svg version="1.1" id="Warstwa_1" xmlns="http://www.w3.org/2000/svg" xmlns:xlink="http://www.w3.org/1999/xlink" x="0px" y="0px"
	 viewBox="0 0 94.3 94.7" style="enable-background:new 0 0 94.3 94.7;" xml:space="preserve">
<style type="text/css">
	.st0{fill:#358021;}
</style>
<path class="st0" d="M41.3,94.7c-2.3,0-4.2-1.9-4.2-4.2V85c-3.2-0.8-6.2-2.1-9.1-3.7l-3.6,3.8c-1.6,1.6-4.3,1.6-5.9,0l-8.4-8.4
	c-1.6-1.6-1.6-4.3,0-5.9l3.6-3.9c-1.6-2.9-2.9-5.9-3.7-9.1H4.2c-2.3,0-4.2-1.9-4.2-4.3c0,0,0,0,0,0V41.3c0-2.3,1.9-4.2,4.2-4.2h5.4
	c0.8-3.2,2.1-6.3,3.7-9.1l-3.8-3.8c-1.6-1.6-1.6-4.3,0-5.9L18,9.7c1.7-1.6,4.3-1.6,5.9,0l3.7,3.7c2.9-1.6,5.9-2.9,9.1-3.7V4.2
	c0-2.3,1.9-4.2,4.2-4.2c0,0,0,0,0,0c0,0,0.5,0,0.5,0l12,0c2.3,0,4.2,1.9,4.2,4.2v5.4c3.2,0.9,6.3,2.1,9.1,3.7l3.8-3.7
	c1.7-1.6,4.3-1.6,5.9,0l8.4,8.4c1.6,1.6,1.6,4.3,0,5.9L81,27.7c1.6,2.9,2.9,5.9,3.7,9.1h5.4c2.3,0,4.2,1.9,4.2,4.2v12.1
	c0,2.3-1.9,4.2-4.2,4.2H85c-0.8,3.2-2.1,6.2-3.7,9.1l3.8,4.1c1.6,1.6,1.6,4.3,0,5.9l-8.4,8.4c-1.7,1.6-4.3,1.6-5.9,0l-3.9-3.9
	c-2.9,1.6-5.9,2.9-9.1,3.7v5.4c0.1,2.3-1.6,4.3-3.9,4.4c0,0-0.3,0-0.3,0L41.3,94.7z M40.1,81.4c0.6,0,1.1,0.5,1.1,1.1v7.8l12.2,0.1
	l0.1-7.8c0-0.6,0.5-1,1-1h0.8c3.8-0.9,7.3-2.4,10.6-4.5l0.7-0.4c0.2-0.1,0.4-0.2,0.6-0.2c0.3,0,0.5,0.1,0.7,0.3l5.4,5.3
	c0.1-0.1,0.4-0.1,0.5-0.2l8.2-8.2c-0.1-0.1-0.2-0.3-0.2-0.5L76.4,68c-0.3-0.3-0.4-0.9-0.1-1.3l0.4-0.7c2.1-3.3,3.6-7,4.5-10.8l0-0.5
	c0-0.6,0.5-1.1,1.1-1.1H90l0.1-12.4l-7.5-0.1c-0.6,0-1.1-0.5-1.1-1.1v-0.8c-0.9-3.7-2.4-7.3-4.5-10.5l-0.4-0.7
	c-0.3-0.4-0.2-0.9,0.1-1.3l5.3-5.4l-8.4-8.6c-0.1,0.1-0.3,0.1-0.4,0.2L67.8,18c-0.2,0.2-0.5,0.3-0.7,0.3c-0.2,0-0.4-0.1-0.6-0.2
	l-0.7-0.4c-3.3-2.1-7-3.6-10.8-4.5l-0.5,0c-0.6,0-1.1-0.5-1.1-1.1v-8L41.3,4.1l-0.1,7.9c0,0.6-0.5,1.1-1.1,1.1h-0.8
	c-3.8,0.9-7.3,2.4-10.6,4.5L28.1,18c-0.2,0.1-0.4,0.2-0.6,0.2c-0.3,0-0.5-0.1-0.7-0.3l-5.4-5.3l-8.6,8.4l5.3,5.9
	c0.3,0.3,0.4,0.9,0.1,1.3l-0.4,0.7c-2.1,3.3-3.6,6.9-4.5,10.8l0,0.6c0,0.6-0.5,1.1-1.1,1.1c0,0,0,0,0,0h-8L4.1,53.4l7.9,0.1
	c0.6,0,1.1,0.5,1.1,1.1v0.8c0.9,3.8,2.4,7.3,4.5,10.6l0.4,0.7c0.3,0.4,0.2,1-0.1,1.3l-5.3,5.4c0.1,0.1,0.1,0.3,0.2,0.4l8.2,8.2
	l5.9-5.3c0.2-0.2,0.4-0.3,0.7-0.3c0.2,0,0.4,0.1,0.6,0.2l0.7,0.4c3.3,2.1,7,3.6,10.8,4.5L40.1,81.4z M47.3,75.3
	c-15.4,0-27.9-12.5-27.9-27.9s12.5-27.9,27.9-27.9c15.4,0,27.9,12.5,27.9,27.9C75.2,62.8,62.7,75.2,47.3,75.3L47.3,75.3z M47.3,23.5
	c-13.2,0-23.8,10.7-23.8,23.8c0,13.2,10.7,23.8,23.8,23.8c13.2,0,23.8-10.7,23.8-23.8C71.2,34.2,60.5,23.5,47.3,23.5L47.3,23.5z
	 M41.9,61.6c-0.3,0-0.5-0.1-0.7-0.3L30.8,50.9c-0.4-0.4-0.4-1.1,0-1.5l1.4-1.4c0.4-0.4,1.1-0.4,1.5,0l8.3,8.3l18-18.1
	c0.2-0.2,0.5-0.3,0.7-0.3l0,0c0.3,0,0.5,0.1,0.7,0.3l1.4,1.4c0.4,0.4,0.4,1.1,0,1.5L42.7,61.3C42.5,61.5,42.2,61.6,41.9,61.6
	L41.9,61.6z"/>
</svg>
