<?xml version="1.0" encoding="utf-8"?>
<!-- Generator: Adobe Illustrator 25.4.1, SVG Export Plug-In . SVG Version: 6.00 Build 0)  -->
<svg version="1.1" id="Warstwa_1" xmlns="http://www.w3.org/2000/svg" xmlns:xlink="http://www.w3.org/1999/xlink" x="0px" y="0px"
	 viewBox="0 0 104.5 109.6" style="enable-background:new 0 0 104.5 109.6;" xml:space="preserve">
<style type="text/css">
	.st0{fill:#358021;}
</style>
<path transform="translate(-122.055 -602.097)" class="st0" d="M158.9,627.3c0.9,1.5,2.6,2.3,4.3,2.3c1.5,0,2.7-1.2,2.7-2.7
	c0-1.4-1.1-2.6-2.5-2.7c-0.1-1.3,0.9-4.4,2.2-7.1l0.9-1.8l0,0c1.3-3.1,2.9-8,1.1-10.9c-0.9-1.5-2.6-2.3-4.3-2.3
	c-1.5,0-2.7,1.2-2.7,2.7c0,1.4,1.1,2.6,2.5,2.7c0.1,1.3-0.9,4.4-2.2,7.1l-0.9,1.8l0,0C158.7,619.5,157.1,624.4,158.9,627.3z
	 M169.9,627.3c0.9,1.5,2.6,2.3,4.3,2.3c1.5,0,2.7-1.2,2.7-2.7c0-1.4-1.1-2.6-2.5-2.7c-0.1-1.3,0.9-4.4,2.2-7.1l0.9-1.8l0,0
	c1.3-3.1,2.9-8,1.1-10.9c-0.9-1.5-2.6-2.3-4.3-2.3c-1.5,0-2.7,1.2-2.7,2.7c0,1.4,1.1,2.6,2.5,2.7c0.1,1.3-0.9,4.4-2.2,7.1l-0.9,1.8
	l0,0C169.7,619.5,168.1,624.4,169.9,627.3z M180.9,627.3c0.9,1.5,2.6,2.3,4.3,2.3c1.5,0,2.7-1.2,2.7-2.7c0-1.4-1.1-2.6-2.5-2.7
	c-0.1-1.3,0.9-4.4,2.2-7.1l0.9-1.8l0,0c1.3-3.1,2.9-8,1.1-10.9c-0.9-1.5-2.6-2.3-4.3-2.3c-1.5,0-2.7,1.2-2.7,2.7
	c0,1.4,1.1,2.6,2.5,2.7c0.1,1.3-0.9,4.4-2.2,7.1l-0.9,1.8l0,0C180.7,619.5,179.1,624.4,180.9,627.3z M226.5,645.7h-7.9
	c-0.1,0-0.2,0-0.4,0H210v-11h-7.6c-0.2,0-0.4,0-0.7,0h-63.3v13.2h0v39.1c0.1,2.3,0.6,4.6,1.7,6.7c0.3,0.5,0.6,1,0.9,1.5h-19.1v2.7
	c0,2.1,0.3,4.1,0.8,6.2c1.6,6.6,5.4,7.6,7.5,7.6h88c2.1,0,5.8-1,7.5-7.6c0.5-2,0.7-4.1,0.8-6.2v-2.7h-19.1c0.3-0.5,0.6-1,0.9-1.5
	c0.6-1.3,1.1-2.7,1.4-4.1c8.3-0.8,12.4-5.6,14.4-9.6c1.4-3,2.2-6.2,2.4-9.5v-11.5h0L226.5,645.7z M144,642.8v-2.6h48.6v0h11.9v46.7
	c-0.1,1.5-0.5,3-1.2,4.4c-1.4,2.6-3.7,3.8-7.1,3.8h-44c-3.4,0-5.7-1.3-7.1-3.8c-0.7-1.4-1.1-2.9-1.2-4.4V642.8z M220.8,700.7
	c-0.4,2.8-1.3,5.5-2.6,5.5h-88c-1.2,0-2.2-2.7-2.6-5.5H220.8z M219.2,677.6c-1.8,3.6-5.2,6-9.2,6.4v-32.8h11v19.2
	C220.9,672.9,220.3,675.4,219.2,677.6z"/>
</svg>
