<svg xmlns="http://www.w3.org/2000/svg" viewBox="0 0 207.44 350.46"><defs><style>.cls-1{fill:#008520;}.cls-2{fill:#0066b1;}.cls-3{fill:#ae0000;}.cls-4{fill:#e90a0a;}.cls-5{fill:#ff8600;}.cls-6{fill:#fff;}.cls-6,.cls-8,.cls-9{stroke:#26221e;stroke-miterlimit:10;}.cls-6,.cls-9{stroke-width:0.79px;}.cls-7{fill:#26221e;}.cls-8,.cls-9{fill:none;}.cls-8{stroke-width:0.76px;}</style></defs><title>Zasób 1</title><g id="Warstwa_2" data-name="Warstwa 2"><g id="Layer_1" data-name="Layer 1"><g id="stripes"><rect class="cls-1" x="171.43" y="125.28" width="36.01" height="139.61"/><rect class="cls-2" x="121.42" y="71.17" width="50.01" height="213.49"/><rect class="cls-3" x="50.3" y="48.35" width="71.13" height="258.3"/><rect class="cls-4" y="86.41" width="36.14" height="191.72"/><rect class="cls-5" x="36.14" y="54.32" width="14.16" height="269.68"/></g><rect class="cls-6" x="31.86" y="252.75" width="145.8" height="11.89"/><rect class="cls-6" x="26.3" y="85.57" width="156.93" height="167.18"/><rect class="cls-6" x="31.86" y="95.7" width="145.8" height="32.92"/><circle class="cls-7" cx="50.02" cy="115.21" r="8.23"/><circle class="cls-7" cx="66.41" cy="113.78" r="4.41"/><circle class="cls-7" cx="104.93" cy="114.78" r="4.41"/><circle class="cls-7" cx="91.42" cy="113.78" r="4.41"/><circle class="cls-7" cx="78.92" cy="113.78" r="4.41"/><rect class="cls-6" x="113.82" y="103.93" width="55.42" height="16.46" rx="2"/><rect class="cls-6" x="138.67" y="109.12" width="23.63" height="6.09" rx="2"/><circle class="cls-6" cx="47.26" cy="112.35" r="8.23"/><circle class="cls-6" cx="64.73" cy="112.35" r="4.41"/><circle class="cls-6" cx="102.25" cy="112.35" r="4.41"/><circle class="cls-6" cx="89.74" cy="112.35" r="4.41"/><circle class="cls-6" cx="77.24" cy="112.35" r="4.41"/><rect class="cls-6" x="31.86" y="134.94" width="145.8" height="32.92"/><circle class="cls-7" cx="50.02" cy="154.44" r="8.23"/><circle class="cls-7" cx="67.41" cy="155.02" r="4.41"/><circle class="cls-7" cx="103.93" cy="153.02" r="4.41"/><circle class="cls-7" cx="91.42" cy="153.02" r="4.41"/><circle class="cls-7" cx="78.92" cy="153.02" r="4.41"/><rect class="cls-6" x="113.82" y="143.17" width="55.42" height="16.46" rx="2"/><rect class="cls-6" x="138.67" y="148.36" width="23.63" height="6.09" rx="2"/><circle class="cls-6" cx="47.26" cy="151.59" r="8.23"/><circle class="cls-6" cx="64.73" cy="151.59" r="4.41"/><circle class="cls-6" cx="102.25" cy="151.59" r="4.41"/><circle class="cls-6" cx="89.74" cy="151.59" r="4.41"/><circle class="cls-6" cx="77.24" cy="151.59" r="4.41"/><rect class="cls-6" x="31.86" y="174.18" width="145.8" height="32.92"/><circle class="cls-7" cx="50.02" cy="193.68" r="8.23"/><circle class="cls-7" cx="66.41" cy="192.25" r="4.41"/><circle class="cls-7" cx="103.93" cy="192.25" r="4.41"/><circle class="cls-7" cx="91.42" cy="192.25" r="4.41"/><circle class="cls-7" cx="78.92" cy="192.25" r="4.41"/><rect class="cls-6" x="113.82" y="182.41" width="55.42" height="16.46" rx="2"/><rect class="cls-6" x="138.67" y="187.59" width="23.63" height="6.09" rx="2"/><circle class="cls-6" cx="47.26" cy="190.82" r="8.23"/><circle class="cls-6" cx="64.73" cy="190.82" r="4.41"/><circle class="cls-6" cx="102.25" cy="190.82" r="4.41"/><circle class="cls-6" cx="89.74" cy="190.82" r="4.41"/><circle class="cls-6" cx="77.24" cy="190.82" r="4.41"/><rect class="cls-6" x="31.86" y="213.41" width="145.8" height="32.92"/><circle class="cls-7" cx="50.02" cy="232.92" r="8.23"/><circle class="cls-7" cx="66.41" cy="231.49" r="4.41"/><circle class="cls-7" cx="103.93" cy="231.49" r="4.41"/><circle class="cls-7" cx="91.42" cy="231.49" r="4.41"/><circle class="cls-7" cx="79.92" cy="232.49" r="4.41"/><rect class="cls-6" x="113.82" y="221.64" width="55.42" height="16.46" rx="2"/><rect class="cls-6" x="138.67" y="226.83" width="23.63" height="6.09" rx="2"/><circle class="cls-6" cx="47.26" cy="230.06" r="8.23"/><circle class="cls-6" cx="64.73" cy="230.06" r="4.41"/><circle class="cls-6" cx="102.25" cy="230.06" r="4.41"/><circle class="cls-6" cx="89.74" cy="230.06" r="4.41"/><circle class="cls-6" cx="77.24" cy="230.06" r="4.41"/><line class="cls-8" x1="39.03" y1="257.19" x2="39.03" y2="264.64"/><line class="cls-8" x1="45.29" y1="257.19" x2="45.29" y2="264.64"/><line class="cls-8" x1="51.55" y1="257.19" x2="51.55" y2="264.64"/><line class="cls-8" x1="57.81" y1="257.19" x2="57.81" y2="264.64"/><line class="cls-8" x1="64.07" y1="257.19" x2="64.07" y2="264.64"/><line class="cls-8" x1="70.33" y1="257.19" x2="70.33" y2="264.64"/><line class="cls-8" x1="76.59" y1="257.19" x2="76.59" y2="264.64"/><line class="cls-8" x1="82.85" y1="257.19" x2="82.85" y2="264.64"/><line class="cls-8" x1="89.11" y1="257.19" x2="89.11" y2="264.64"/><line class="cls-8" x1="95.37" y1="257.19" x2="95.37" y2="264.64"/><line class="cls-8" x1="101.64" y1="257.19" x2="101.64" y2="264.64"/><line class="cls-8" x1="107.9" y1="257.19" x2="107.9" y2="264.64"/><line class="cls-8" x1="114.16" y1="257.19" x2="114.16" y2="264.64"/><line class="cls-8" x1="120.42" y1="257.19" x2="120.42" y2="264.64"/><line class="cls-8" x1="126.68" y1="257.19" x2="126.68" y2="264.64"/><line class="cls-8" x1="132.94" y1="257.19" x2="132.94" y2="264.64"/><line class="cls-8" x1="139.2" y1="257.19" x2="139.2" y2="264.64"/><line class="cls-8" x1="145.46" y1="257.19" x2="145.46" y2="264.64"/><line class="cls-8" x1="151.72" y1="257.19" x2="151.72" y2="264.64"/><line class="cls-8" x1="157.98" y1="257.19" x2="157.98" y2="264.64"/><line class="cls-8" x1="164.24" y1="257.19" x2="164.24" y2="264.64"/><line class="cls-8" x1="170.5" y1="257.19" x2="170.5" y2="264.64"/><polyline class="cls-9" points="104.93 70.52 104.93 9.46 165.99 9.46"/><circle class="cls-6" cx="104.76" cy="9.46" r="9.06"/><polyline class="cls-9" points="104.93 279.94 104.93 341 165.99 341"/><circle class="cls-6" cx="104.76" cy="341" r="9.06"/></g></g></svg>