<?xml version="1.0" encoding="utf-8"?>
<!-- Generator: Adobe Illustrator 25.4.1, SVG Export Plug-In . SVG Version: 6.00 Build 0)  -->
<svg version="1.1" id="Warstwa_1" xmlns="http://www.w3.org/2000/svg" xmlns:xlink="http://www.w3.org/1999/xlink" x="0px" y="0px"
	 viewBox="0 0 88 92.6" style="enable-background:new 0 0 88 92.6;" xml:space="preserve">
<style type="text/css">
	.st0{fill:#358021;}
</style>
<path transform="translate(-2.323 -1.814)" class="st0" d="M39.4,4.1c0-1.3-1-2.3-2.3-2.3c-1.3,0-2.3,1-2.3,2.3v2.1L16.2,6.3V4.1
	c0-1.3-1-2.3-2.3-2.3s-2.3,1-2.3,2.3v2.3L2.3,6.5v50.9h46l0.4-51.3l-9.3,0.1L39.4,4.1z M44,10.7l-0.3,42.1H6.9V11l4.7,0v2.4
	c0,1.3,1,2.3,2.3,2.3s2.3-1,2.3-2.3l0,0V11l18.5-0.2v2.6c0,1.3,1,2.3,2.3,2.3c1.3,0,2.3-1,2.3-2.3v-2.6L44,10.7z M81.1,11.1V8.8
	c0-1.3-1-2.3-2.3-2.3s-2.3,1-2.3,2.3v2.3h-9.3V8.8c0-1.3-1-2.3-2.3-2.3c-1.3,0-2.3,1-2.3,2.3v2.3h-8.8v69.5h36.6V11.1H81.1z
	 M85.7,75.9H58.3V15.7h4.2V18c0,1.3,1,2.3,2.3,2.3c1.3,0,2.3-1,2.3-2.3v-2.3h9.3V18c0,1.3,1,2.3,2.3,2.3s2.3-1,2.3-2.3l0,0v-2.3h4.7
	L85.7,75.9z M39.4,64.4c0-1.3-1-2.3-2.3-2.3c-1.3,0-2.3,1-2.3,2.3v2.3H16.2v-2.3c0-1.3-1-2.3-2.3-2.3s-2.3,1-2.3,2.3l0,0v2.3H2.3
	v27.8h46.3V66.7h-9.3V64.4z M44,71.3v18.6H6.9V71.3h4.7v2.3c0,1.3,1,2.3,2.3,2.3s2.3-1,2.3-2.3v-2.3h18.5v2.3c0,1.3,1,2.3,2.3,2.3
	c1.3,0,2.3-1,2.3-2.3v-2.3L44,71.3z"/>
</svg>
