<?xml version="1.0" encoding="utf-8"?>
<!-- Generator: Adobe Illustrator 25.4.1, SVG Export Plug-In . SVG Version: 6.00 Build 0)  -->
<svg version="1.1" id="Warstwa_1" xmlns="http://www.w3.org/2000/svg" xmlns:xlink="http://www.w3.org/1999/xlink" x="0px" y="0px"
	 viewBox="0 0 183.3 37.3" style="enable-background:new 0 0 183.3 37.3;" xml:space="preserve">
<style type="text/css">
	.st0{fill:#201D1A;}
</style>
<path transform="translate(-282 -13081.871)" class="st0" d="M330.1,13103.4v15.3h-7.7v-14.1c0-4.3-1.9-6.3-5.1-6.3
	c-3.5,0-5.9,2.2-5.9,7v13.4h-7.7v-14.1c0-4.3-1.8-6.3-5.1-6.3c-3.4,0-5.9,2.2-5.9,7v13.4H285v-20.8h-3v-6h9.2l0.4,4.1
	c2.1-3,5.6-4.7,9.2-4.5c3.7,0,6.9,1.4,8.8,4.4c2.4-2.9,5.9-4.5,9.6-4.4C325.6,13091.6,330.1,13095.3,330.1,13103.4 M367.2,13109.2
	c0,6-4.8,9.5-13.9,9.5h-17.1v-28.2h-3.7v-6.6h19.8c8.7,0,13.2,3.6,13.2,9c0.1,3.2-1.7,6.2-4.6,7.7
	C364.7,13101.7,367.3,13105.2,367.2,13109.2 M344.2,13090v8.2h7.1c3.9,0,6.1-1.4,6.1-4.1c0-2.7-2.1-4.1-6.1-4.1H344.2z M359,13108.4
	c0-2.9-2.2-4.3-6.4-4.3h-8.5v8.6h8.5C356.9,13112.7,359,13111.4,359,13108.4 M398.7,13092v26.7h-7.4v-3.1c-1.9,2.3-4.8,3.5-8.3,3.5
	c-7.5,0-13.4-5.4-13.4-13.8c0-8.4,5.8-13.8,13.4-13.8c3-0.2,5.9,1,8,3.2v-2.8H398.7z M391.1,13105.4c0-4.6-3-7.4-6.8-7.4
	c-3.9,0-6.9,2.8-6.9,7.4s3,7.4,6.9,7.4C388.1,13112.8,391.1,13110,391.1,13105.4 M432.7,13103.4v15.3h-7.7v-14.1
	c0-4.3-2-6.3-5.4-6.3c-3.7,0-6.4,2.3-6.4,7.2v13.2h-7.7v-20.8h-3v-6h9.2l0.4,4.2c2-3,5.5-4.6,9.6-4.6
	C427.9,13091.6,432.7,13095.3,432.7,13103.4 M465.3,13118.7h-8.8l-7.6-11.6h-3.6v11.6h-7.7v-36.9h7.7v19.4h3.6l7.2-9.2h8.6
	l-9.1,11.7L465.3,13118.7z"/>
</svg>
