<svg xmlns="http://www.w3.org/2000/svg" xmlns:xlink="http://www.w3.org/1999/xlink" viewBox="0 0 140.2 16.35"><defs><style>.cls-1{fill:none;}.cls-2{fill:#ae0000;}.cls-3{fill:#ff8600;}.cls-4{fill:#0065b1;}.cls-5{fill:#e90a0a;}.cls-6{fill:#008f20;}.cls-7{fill:#26221e;}.cls-8{clip-path:url(#clip-path);}.cls-9{fill:#fff;}.cls-10{fill:#645237;}.cls-11{fill:#c29d67;}.cls-12{fill:#183d4d;}.cls-13{fill:#36302f;}.cls-14{clip-path:url(#clip-path-2);}.cls-15{fill:#565a69;}.cls-16{fill:#0095de;}.cls-17{fill:#184868;}.cls-18{fill:#001b29;}.cls-19{fill:#a4bdc4;}.cls-20{clip-path:url(#clip-path-3);}</style><clipPath id="clip-path"><rect class="cls-1" width="43.61" height="16.35"/></clipPath><clipPath id="clip-path-2"><rect class="cls-1" x="48.4" width="43.61" height="16.35"/></clipPath><clipPath id="clip-path-3"><rect class="cls-1" x="96.59" width="43.61" height="16.35"/></clipPath></defs><title>Zasób 5</title><g id="Warstwa_2" data-name="Warstwa 2"><g id="Layer_1" data-name="Layer 1"><rect class="cls-2" x="24.42" width="7.63" height="16.35"/><rect class="cls-3" x="12.64" width="11.78" height="16.35"/><rect class="cls-4" x="32.06" width="0.87" height="16.35"/><rect class="cls-5" width="11.33" height="16.35"/><rect class="cls-6" x="32.93" width="10.68" height="16.35"/><rect class="cls-7" x="11.33" width="1.31" height="16.35"/><g class="cls-8"><path class="cls-9" d="M13.55,8.6v3h-1.5V8.83c0-.83-.38-1.22-1-1.22S9.93,8.05,9.93,9v2.59H8.43V8.83c0-.83-.35-1.22-1-1.22S6.32,8.05,6.32,9v2.59H4.82v-4H4.25V6.4H6l.08.79a2.06,2.06,0,0,1,1.77-.87,1.93,1.93,0,0,1,1.7.84,2.36,2.36,0,0,1,1.86-.84A2,2,0,0,1,13.55,8.6"/><path class="cls-9" d="M20.7,9.72c0,1.17-.92,1.84-2.68,1.84h-3.3V6.11H14V4.84h3.81c1.68,0,2.55.7,2.55,1.75a1.6,1.6,0,0,1-.9,1.47A1.66,1.66,0,0,1,20.7,9.72M16.26,6V7.59h1.37c.76,0,1.17-.26,1.17-.79S18.39,6,17.63,6Zm2.87,3.55c0-.56-.42-.83-1.23-.83H16.26v1.66H17.9c.81,0,1.23-.25,1.23-.83"/><path class="cls-9" d="M26.79,6.4v5.16H25.36V11a2,2,0,0,1-1.62.67A2.51,2.51,0,0,1,21.16,9a2.51,2.51,0,0,1,2.58-2.66,2,2,0,0,1,1.55.62V6.4ZM25.32,9a1.32,1.32,0,1,0-2.64,0,1.32,1.32,0,1,0,2.64,0"/><path class="cls-9" d="M33.35,8.6v3h-1.5V8.83c0-.83-.38-1.22-1-1.22s-1.24.45-1.24,1.4v2.55h-1.5v-4H27.5V6.4h1.77l.08.8a2.17,2.17,0,0,1,1.86-.88A2,2,0,0,1,33.35,8.6"/><polygon class="cls-9" points="39.66 11.56 37.96 11.56 36.51 9.32 35.81 9.32 35.81 11.56 34.32 11.56 34.32 4.44 35.81 4.44 35.81 8.18 36.51 8.18 37.89 6.4 39.56 6.4 37.8 8.66 39.66 11.56"/></g><rect class="cls-9" x="48.4" width="43.61" height="16.35"/><rect class="cls-10" x="72.82" width="7.63" height="16.35"/><rect class="cls-11" x="61.04" width="11.78" height="16.35"/><rect class="cls-12" x="80.46" width="0.87" height="16.35"/><rect class="cls-13" x="48.4" width="11.33" height="16.35"/><rect class="cls-7" x="81.33" width="10.68" height="16.35"/><rect class="cls-2" x="59.74" width="1.31" height="16.35"/><g class="cls-14"><path class="cls-9" d="M62,8.6v3h-1.5V8.83c0-.83-.37-1.22-1-1.22S58.33,8.05,58.33,9v2.59h-1.5V8.83c0-.83-.35-1.22-1-1.22S54.72,8.05,54.72,9v2.59H53.23v-4h-.58V6.4h1.77l.08.79a2.08,2.08,0,0,1,1.78-.87A1.92,1.92,0,0,1,58,7.16a2.37,2.37,0,0,1,1.87-.84A2,2,0,0,1,62,8.6"/><path class="cls-9" d="M69.1,9.72c0,1.17-.92,1.84-2.68,1.84h-3.3V6.11h-.71V4.84h3.82c1.68,0,2.54.7,2.54,1.75a1.61,1.61,0,0,1-.89,1.47A1.66,1.66,0,0,1,69.1,9.72M64.66,6V7.59H66c.76,0,1.17-.26,1.17-.79S66.79,6,66,6Zm2.87,3.55c0-.56-.42-.83-1.23-.83H64.66v1.66H66.3c.81,0,1.23-.25,1.23-.83"/><path class="cls-9" d="M75.19,6.4v5.16H73.76V11a2,2,0,0,1-1.61.67A2.51,2.51,0,0,1,69.56,9a2.51,2.51,0,0,1,2.59-2.66,2,2,0,0,1,1.54.62V6.4ZM73.72,9a1.32,1.32,0,1,0-2.64,0,1.32,1.32,0,1,0,2.64,0"/><path class="cls-9" d="M81.75,8.6v3h-1.5V8.83c0-.83-.38-1.22-1-1.22S78,8.06,78,9v2.55h-1.5v-4H75.9V6.4h1.77l.08.8a2.17,2.17,0,0,1,1.86-.88A2,2,0,0,1,81.75,8.6"/><polygon class="cls-9" points="88.06 11.56 86.36 11.56 84.91 9.32 84.22 9.32 84.22 11.56 82.72 11.56 82.72 4.44 84.22 4.44 84.22 8.18 84.91 8.18 86.29 6.39 87.96 6.39 86.2 8.66 88.06 11.56"/></g><rect class="cls-15" x="121.01" width="7.63" height="16.35"/><rect class="cls-16" x="109.23" width="11.78" height="16.35"/><rect class="cls-3" x="128.64" width="0.87" height="16.35"/><rect class="cls-17" x="96.59" width="11.33" height="16.35"/><rect class="cls-18" x="129.51" width="10.68" height="16.35"/><rect class="cls-19" x="107.92" width="1.31" height="16.35"/><g class="cls-20"><path class="cls-9" d="M110.13,8.61v3h-1.49V8.84c0-.83-.38-1.22-1-1.22s-1.15.43-1.15,1.35v2.6H105V8.84c0-.83-.36-1.22-1-1.22s-1.13.43-1.13,1.35v2.6h-1.5v-4h-.58V6.4h1.78l.08.8a2,2,0,0,1,1.77-.87,1.91,1.91,0,0,1,1.7.84A2.3,2.3,0,0,1,108,6.33a2,2,0,0,1,2.11,2.28"/><path class="cls-9" d="M117.29,9.73c0,1.16-.92,1.84-2.69,1.84h-3.3V6.12h-.71V4.85h3.82c1.68,0,2.54.7,2.54,1.75a1.6,1.6,0,0,1-.89,1.47,1.66,1.66,0,0,1,1.23,1.66M112.85,6V7.6h1.37c.76,0,1.17-.27,1.17-.79S115,6,114.22,6Zm2.87,3.55c0-.57-.43-.84-1.23-.84h-1.64v1.66h1.64c.8,0,1.23-.24,1.23-.82"/><path class="cls-9" d="M123.37,6.4v5.17h-1.43V11a2,2,0,0,1-1.61.67A2.5,2.5,0,0,1,117.75,9a2.5,2.5,0,0,1,2.58-2.65,2,2,0,0,1,1.55.62V6.4ZM121.9,9a1.32,1.32,0,1,0-2.63,0,1.32,1.32,0,1,0,2.63,0"/><path class="cls-9" d="M129.94,8.61v3h-1.5V8.84c0-.83-.39-1.22-1-1.22s-1.24.44-1.24,1.39v2.56h-1.49v-4h-.58V6.4h1.78l.07.81a2.18,2.18,0,0,1,1.87-.88,2,2,0,0,1,2.14,2.28"/><polygon class="cls-9" points="136.25 11.56 134.55 11.56 133.09 9.33 132.4 9.33 132.4 11.56 130.9 11.56 130.9 4.45 132.4 4.45 132.4 8.19 133.09 8.19 134.47 6.4 136.14 6.4 134.39 8.67 136.25 11.56"/></g></g></g></svg>