<?xml version="1.0" encoding="utf-8"?>
<!-- Generator: Adobe Illustrator 25.4.1, SVG Export Plug-In . SVG Version: 6.00 Build 0)  -->
<svg version="1.1" id="Warstwa_1" xmlns="http://www.w3.org/2000/svg" xmlns:xlink="http://www.w3.org/1999/xlink" x="0px" y="0px"
	 viewBox="0 0 95 94" style="enable-background:new 0 0 95 94;" xml:space="preserve">
<style type="text/css">
	.st0{fill:#358021;}
</style>
<path class="st0" d="M95,47C95,21.5,74.4,0.8,48.9,0c-0.5,0-0.9,0-1.4,0s-0.9,0-1.4,0C20.6,0.8,0,21.5,0,47c0,0,0,0,0,0
	c0,25.1,20,45.7,45.1,46.9c0.8,0,1.6,0.1,2.4,0.1s1.6,0,2.4-0.1C75,92.7,95,72.1,95,47C95,47,95,47,95,47z M47.5,89
	C24.1,89,5,70.2,5,47S24.1,5,47.5,5S90,23.8,90,47S70.9,89,47.5,89z M56.4,48c-0.1,0-0.1,0-0.2,0h-1c3.4-1.7,6.2-4.4,8-7.8
	c2.2-4.2,2.6-9,1.2-13.6c-3-9.4-13-14.5-22.3-11.6c-9.4,3-14.5,13-11.6,22.3c1.5,4.7,4.8,8.5,9.1,10.6h-0.8c-0.1,0-0.1,0-0.2,0
	c-10.9,0-19.9,8.9-20,19.8c0,2.3,1.9,4.2,4.1,4.2h49.5c2.3,0,4.2-1.9,4.2-4.2C76.3,56.9,67.3,48,56.4,48z M34.3,32
	c0.1-3.5,1.5-6.8,4.1-9.2c2.6-2.4,5.9-3.7,9.4-3.6c7.1,0.2,12.7,5.8,12.9,12.9c-0.1,3.5-1.5,6.8-4.1,9.2s-5.9,3.7-9.4,3.6
	C40.1,44.7,34.5,39.1,34.3,32z M71.8,67.4H23.2c0.4-8.2,7.1-14.7,15.4-14.7c0.1,0,0.1,0,0.2,0h17.5c0.1,0,0.1,0,0.2,0
	C64.6,52.7,71.4,59.2,71.8,67.4z"/>
</svg>
