<?xml version="1.0" encoding="utf-8"?>
<!-- Generator: Adobe Illustrator 25.4.1, SVG Export Plug-In . SVG Version: 6.00 Build 0)  -->
<svg version="1.1" id="Warstwa_1" xmlns="http://www.w3.org/2000/svg" xmlns:xlink="http://www.w3.org/1999/xlink" x="0px" y="0px"
	 viewBox="0 0 81 108" style="enable-background:new 0 0 81 108;" xml:space="preserve">
<style type="text/css">
	.st0{fill:#358021;}
</style>
<path transform="translate(-90.708 -207.852)" class="st0" d="M113.2,225.8v1.9h35.6v-4.1h-35.7L113.2,225.8L113.2,225.8z
	 M171.7,223.6v-4.5h-18v-2.3c0-1.2-1-2.2-2.2-2.2h0h-9.9c-0.5-0.1-0.8-0.4-1-0.8c-2.3-5.1-8.3-7.3-13.4-5c-2.3,1.1-4.2,3-5.2,5.3
	c-0.2,0.3-0.5,0.5-0.9,0.5h-9.8c-1.2,0-2.2,0.9-2.3,2.2v2.3H90.7v96.7h3.2c0.3,0.1,0.7,0.1,1.1,0.1h72.4c0.4,0,0.7-0.1,1.1-0.1h3.2
	v-4.5h0L171.7,223.6L171.7,223.6z M167.1,311.2H95.2v-87.7h18v-4.5h7.8c2.1,0,4-1.3,4.9-3.2c1.2-2.8,4.5-4.1,7.4-2.9
	c1.3,0.6,2.3,1.6,2.9,2.9c0.9,2,2.7,3.3,4.9,3.4h7.8v4.3h18.3L167.1,311.2z M132.9,269.8v-27.9c0,0,0,0,0-0.1v-1.7h-3.5v29.8
	c-4.9,1.1-8,6-6.9,10.9c0.8,3.4,3.5,6.1,6.9,6.9v11.1h1.3c0.2,0,0.3,0.1,0.5,0.1c0.2,0,0.3,0,0.5-0.1h1.3v-1.1c0,0,0,0,0-0.1v-10
	c4.3-0.8,7.5-4.5,7.6-8.9l0,0C140.4,274.4,137.2,270.6,132.9,269.8z M131.4,283c-2.5,0-4.5-1.9-4.6-4.4c0,0,0,0,0,0v-0.1
	c0-2.5,2.1-4.5,4.6-4.4s4.5,2.1,4.4,4.6C135.8,281,133.8,283,131.4,283z M161.1,260.1L161.1,260.1c-0.1-4.4-3.2-8.1-7.6-8.9v-10
	c0,0,0,0,0-0.1v-1.1h-1.3c-0.2,0-0.3-0.1-0.5-0.1c-0.2,0-0.3,0-0.5,0.1H150v11.1c-4.9,1.1-8,6-6.9,10.9c0.8,3.4,3.5,6.1,6.9,6.9
	v29.8h3.5v-1.7c0,0,0,0,0-0.1v-27.9C157.9,268.3,161.1,264.5,161.1,260.1z M156.5,260.5c-0.1,2.5-2.1,4.5-4.6,4.4
	c-2.4-0.1-4.4-2-4.4-4.4v-0.1c0-2.5,2-4.5,4.5-4.5c2.5,0,4.5,2,4.5,4.5C156.5,260.4,156.5,260.4,156.5,260.5z M119.5,260.1
	L119.5,260.1c-0.1-4.4-3.2-8.1-7.6-8.9v-10c0,0,0,0,0-0.1v-1.1h-1.3c-0.2,0-0.3-0.1-0.5-0.1c-0.2,0-0.3,0-0.5,0.1h-1.3v11.1
	c-4.9,1.1-8,6-6.9,10.9c0.8,3.4,3.5,6.1,6.9,6.9v29.8h3.5v-1.7c0,0,0,0,0-0.1v-27.9C116.3,268.3,119.5,264.5,119.5,260.1z
	 M114.9,260.5c0,2.5-2.1,4.5-4.6,4.4c-2.4,0-4.4-2-4.4-4.4v-0.1c0-2.5,2.1-4.5,4.6-4.4C112.9,255.9,114.9,258,114.9,260.5z"/>
</svg>
