<?xml version="1.0" encoding="utf-8"?>
<!-- Generator: Adobe Illustrator 25.4.1, SVG Export Plug-In . SVG Version: 6.00 Build 0)  -->
<svg version="1.1" id="Warstwa_1" xmlns="http://www.w3.org/2000/svg" xmlns:xlink="http://www.w3.org/1999/xlink" x="0px" y="0px"
	 viewBox="0 0 97 76" style="enable-background:new 0 0 97 76;" xml:space="preserve">
<style type="text/css">
	.st0{fill:#358021;}
</style>
<path class="st0" d="M86,49V37.5h0l0-2.6l-35,0v-8h11V0H35v27h11v8l-35,0l0,2.5V49H0v27h27V49H16v-9l30,0v9H35v27h27V49H51v-9l30,0
	V49H70v27h27V49H86z M40,5h17v17H40V5z M22,71H5V54h17V71z M57,71H40V54h17V71z M92,71H75V54h17V71z"/>
</svg>
