<svg xmlns="http://www.w3.org/2000/svg" viewBox="0 0 827.3 73.56"><defs><style>.cls-1{fill:#008f20;}.cls-2{font-size:32px;fill:#fff;font-family:mBank-Bold, mBank;font-weight:700;}.cls-3{letter-spacing:-0.01em;}.cls-4{letter-spacing:0em;}</style></defs><title>Zasób 1</title><g id="Warstwa_2" data-name="Warstwa 2"><g id="Layer_1" data-name="Layer 1"><path class="cls-1" d="M695.44,50C676.53,29.45,665.86,2.35,630.77.31a21.24,21.24,0,0,0-3.6-.31L408.89.11,190.62,0a21.24,21.24,0,0,0-3.6.31c-35.1,2-45.77,29.14-64.68,49.73H25.43A25.51,25.51,0,0,0,0,73.56H725.89c-1-7.79-2-15.6-2.64-23.52Z"/><path class="cls-1" d="M801.87,50H499.47q0,11.76-.12,23.52H827.3A25.51,25.51,0,0,0,801.87,50Z"/><text class="cls-2" transform="translate(356.27 43.22)"><tspan class="cls-3">T</tspan><tspan x="19.46" y="0">OO</tspan><tspan class="cls-4" x="73.47" y="0">L</tspan><tspan x="92.67" y="0">S</tspan></text></g></g></svg>