<?xml version="1.0" encoding="utf-8"?>
<!-- Generator: Adobe Illustrator 25.4.1, SVG Export Plug-In . SVG Version: 6.00 Build 0)  -->
<svg version="1.1" id="Warstwa_1" xmlns="http://www.w3.org/2000/svg" xmlns:xlink="http://www.w3.org/1999/xlink" x="0px" y="0px"
	 viewBox="0 0 122 69.4" style="enable-background:new 0 0 122 69.4;" xml:space="preserve">
<style type="text/css">
	.st0{fill:#358021;}
</style>
<path class="st0" d="M114.1,69.4H7.9c-4.4,0-7.9-3.5-7.9-7.9V7.9C0,3.5,3.5,0,7.9,0h106.2c4.4,0,7.9,3.5,7.9,7.9v53.6
	C122,65.8,118.5,69.4,114.1,69.4z M7.9,3.6c-2.4,0-4.3,1.9-4.3,4.3v53.6c0,2.4,1.9,4.3,4.3,4.3h106.2c2.4,0,4.3-1.9,4.3-4.3V7.9
	c0-2.4-1.9-4.3-4.3-4.3L7.9,3.6z M108.8,56.2H46V39.5h62.8V56.2z M49.7,52.6h55.6v-9.5H49.7L49.7,52.6z M21.1,29.9
	c-6.4,0-11.7-5.2-11.7-11.7c0-6.4,5.2-11.7,11.7-11.7c6.4,0,11.7,5.2,11.7,11.7C32.8,24.7,27.6,29.9,21.1,29.9z M21.1,10.2
	c-4.4,0-8.1,3.6-8.1,8.1c0,4.4,3.6,8.1,8.1,8.1c4.4,0,8.1-3.6,8.1-8.1C29.2,13.8,25.6,10.2,21.1,10.2L21.1,10.2z M21.5,23
	c-1,0-1.8-0.8-1.8-1.8V15c0-1,0.8-1.8,1.8-1.8c0,0,0,0,0,0c1,0,1.8,0.8,1.8,1.8v6.2C23.3,22.1,22.5,23,21.5,23
	C21.5,23,21.5,23,21.5,23z"/>
</svg>
